PathFileType	4	(X/Y/Z)	/Users/itak/Documents/Research/Walk-IL/dataset/trc/00383_00012.trc
DataRate	CameraRate	NumFrames	NumMarkers	Units	OrigDataRate	OrigDataStartFrame	OrigNumFrames
100.000000	100.000000	4	53	mm	100.000000	418	558
Frame#	Time	RPSI			LPSI			L3			STRN			T10			C7			CLAV			RBAK			LBAK			LSHO			LUPA			LAEL			LAOL			LWTS			LWPS			LFRA			LIFD			LHPS			LHTS			RSHO			RUPA			RAEL			RAOL			RWTS			RWPS			RFRA			RIFD			RHTS			RHPS			RBHD			LFHD			RFHD			LBHD			LHIP			RHIP			RASI			LASI			LKNE			LTHI			LANK			LTIP			LTOE			LMT1			LMT5			LHEE			RKNE			RTHI			RANK			RTIP			RTOE			RMT1			RMT5			RHEE			
		X1	Y1	Z1	X2	Y2	Z2	X3	Y3	Z3	X4	Y4	Z4	X5	Y5	Z5	X6	Y6	Z6	X7	Y7	Z7	X8	Y8	Z8	X9	Y9	Z9	X10	Y10	Z10	X11	Y11	Z11	X12	Y12	Z12	X13	Y13	Z13	X14	Y14	Z14	X15	Y15	Z15	X16	Y16	Z16	X17	Y17	Z17	X18	Y18	Z18	X19	Y19	Z19	X20	Y20	Z20	X21	Y21	Z21	X22	Y22	Z22	X23	Y23	Z23	X24	Y24	Z24	X25	Y25	Z25	X26	Y26	Z26	X27	Y27	Z27	X28	Y28	Z28	X29	Y29	Z29	X30	Y30	Z30	X31	Y31	Z31	X32	Y32	Z32	X33	Y33	Z33	X34	Y34	Z34	X35	Y35	Z35	X36	Y36	Z36	X37	Y37	Z37	X38	Y38	Z38	X39	Y39	Z39	X40	Y40	Z40	X41	Y41	Z41	X42	Y42	Z42	X43	Y43	Z43	X44	Y44	Z44	X45	Y45	Z45	X46	Y46	Z46	X47	Y47	Z47	X48	Y48	Z48	X49	Y49	Z49	X50	Y50	Z50	X51	Y51	Z51	X52	Y52	Z52	X53	Y53	Z53	

419	4.18	790.9369506835938	938.7314453125	167.2249450683594	771.6138916015625	933.0413818359375	38.1038703918457	775.8975219726562	1012.745544433594	99.89020538330078	987.3462524414062	1187.486083984375	76.95642852783203	746.1282958984375	1110.511108398438	86.48023223876953	758.6489868164062	1361.767578125	67.02459716796875	919.4358520507812	1298.97216796875	77.12023162841797	729.83740234375	1209.581909179688	129.3267669677734	744.7845458984375	1324.712768554688	-34.05485534667969	829.950927734375	1349.8876953125	-84.88393402099609	808.4227294921875	1227.3642578125	-149.8574523925781	843.43701171875	1041.603515625	-173.8167572021484	795.0032958984375	1003.534973144531	-112.8306274414062	1045.402954101562	966.6235961914062	-146.9447479248047	1018.560180664062	930.8760986328125	-216.4349060058594	907.7550659179688	983.56982421875	-190.7667236328125	1176.81005859375	846.8786010742188	-173.2186889648438	1092.960083007812	884.6542358398438	-219.7113037109375	1129.564331054688	919.037841796875	-179.1004333496094	807.1581420898438	1341.174560546875	226.232421875	784.7980346679688	1276.740844726562	276.6278686523438	747.7945556640625	1018.243896484375	295.43359375	761.9837036132812	1013.005249023438	198.9758758544922	841.1312255859375	786.7119140625	297.0792846679688	781.7926635742188	785.9639892578125	341.2943420410156	756.6008911132812	951.7737426757812	315.9396057128906	798.8295288085938	618.2433471679688	288.1825866699219	827.77197265625	679.28857421875	315.009033203125	765.906494140625	697.5648193359375	337.7752990722656	785.6281127929688	1550.394653320312	157.1955261230469	925.1626586914062	1567.828491210938	15.24375820159912	917.0405883789062	1572.742919921875	138.3467864990234	779.050048828125	1540.452514648438	-3.768208980560303	841.009033203125	926.4861450195312	-89.97362518310547	892.8807373046875	926.0836181640625	267.2039184570312	1010.718322753906	948.5704345703125	189.4803009033203	957.8408813476562	926.8646850585938	-70.15948486328125	843.8137817382812	439.96484375	-57.40055847167969	852.5997924804688	581.38232421875	-72.77761840820312	537.2610473632812	95.86534881591797	-19.91695213317871	685.1095581054688	259.5739440917969	-50.04292678833008	720.6729736328125	33.66499328613281	71.75045013427734	649.1246337890625	57.55991363525391	86.52880859375	648.7107543945312	38.48933410644531	-15.95298767089844	500.3677978515625	124.7319869995117	30.79929161071777	1078.369018554688	466.1973266601562	210.9358062744141	1021.949035644531	721.520751953125	250.0083770751953	1126.675659179688	44.49112701416016	167.1219787597656	1118.797119140625	346.0965881347656	190.7589721679688	1299.296508789062	33.11184310913086	89.51144409179688	1223.329223632812	38.17349243164062	66.46439361572266	1209.78271484375	35.44115447998047	165.3005676269531	1051.826416015625	32.26194381713867	117.3246383666992	
420	4.19	800.6952514648438	940.776123046875	168.1581268310547	781.5380249023438	934.2667846679688	39.00901794433594	785.763427734375	1014.134155273438	100.6546096801758	996.3948364257812	1189.592041015625	77.44655609130859	755.515869140625	1111.702270507812	87.35417938232422	767.0880126953125	1362.942138671875	68.00897979736328	928.120849609375	1300.894897460938	77.73324584960938	739.6407470703125	1210.793090820312	130.5310668945312	753.1470947265625	1325.838012695312	-32.99020767211914	838.0576782226562	1351.207885742188	-84.06263732910156	816.4027709960938	1228.780029296875	-148.8948516845703	851.0193481445312	1042.34716796875	-172.9149932861328	802.2012329101562	1005.3974609375	-111.5649871826172	1050.96240234375	958.9916381835938	-145.8047332763672	1022.552673339844	924.815673828125	-215.4538421630859	914.1436157226562	981.8585815429688	-189.7476806640625	1176.526611328125	833.1432495117188	-172.5744171142578	1094.821655273438	875.2805786132812	-218.9917602539062	1132.85302734375	907.5593872070312	-178.0431213378906	816.064697265625	1342.89501953125	227.0684509277344	794.4310913085938	1278.389770507812	277.75732421875	760.3347778320312	1019.509033203125	297.8070678710938	773.3260498046875	1013.915954589844	201.6795501708984	857.6087036132812	789.5341186523438	299.4181213378906	798.7369995117188	787.9011840820312	344.2207336425781	770.3068237304688	953.1268920898438	318.4444885253906	818.1611938476562	620.337646484375	291.4832763671875	845.9153442382812	681.8941650390625	317.6805419921875	784.4635009765625	699.2573852539062	341.1764831542969	793.8638305664062	1551.878295898438	157.8379669189453	933.10107421875	1569.343139648438	15.60447692871094	925.1478881835938	1574.371215820312	138.7448883056641	787.0201416015625	1541.700561523438	-3.145384073257446	851.1441040039062	927.1986694335938	-88.81884002685547	902.572265625	928.7532348632812	268.1922912597656	1020.502746582031	951.0650024414062	190.5831451416016	967.683349609375	927.9244995117188	-68.81739044189453	856.6143188476562	440.7810974121094	-57.86162185668945	864.6492309570312	581.6951293945312	-72.19611358642578	542.7857055664062	102.8169784545898	-20.59328651428223	693.88037109375	264.0302124023438	-50.68634796142578	721.1163940429688	33.51495361328125	71.66812896728516	652.2330322265625	59.5880126953125	85.81819915771484	650.8714599609375	39.24816131591797	-16.2691535949707	507.6217651367188	133.6501159667969	30.2486515045166	1085.05126953125	466.8766174316406	211.8484039306641	1031.57861328125	723.3596801757812	251.0985260009766	1127.279296875	44.4007453918457	167.1744384765625	1123.793701171875	346.1051635742188	191.4121551513672	1299.759887695312	31.9423828125	89.25152587890625	1223.698608398438	37.93915557861328	66.52622985839844	1210.059204101562	35.20108032226562	165.3537292480469	1052.100219726562	32.59684371948242	117.8743362426758	
421	4.2	810.319580078125	942.7059936523438	169.1373291015625	791.166748046875	935.461669921875	39.98117065429688	795.333984375	1015.509643554688	101.503044128418	1005.31298828125	1191.66845703125	77.95364379882812	764.8550415039062	1112.902709960938	88.29445648193359	775.44921875	1364.113891601562	69.03720855712891	936.6978759765625	1302.8134765625	78.35246276855469	749.344482421875	1212.039794921875	131.7830352783203	761.3912963867188	1326.983520507812	-31.86144065856934	846.0380249023438	1352.5341796875	-83.20124053955078	824.2691650390625	1230.22900390625	-147.9106750488281	858.5450439453125	1043.121215820312	-172.024169921875	809.288330078125	1007.29296875	-110.3280792236328	1055.994384765625	951.296630859375	-144.6985931396484	1026.032836914062	918.6295166015625	-214.4200744628906	920.28759765625	980.1138916015625	-188.716064453125	1175.462768554688	819.6434936523438	-171.8939514160156	1096.010009765625	865.8697509765625	-218.1969299316406	1135.41796875	896.1084594726562	-177.0219421386719	824.9417724609375	1344.662963867188	227.9258575439453	804.0177001953125	1280.1201171875	278.9207153320312	772.7691650390625	1020.939086914062	300.2881469726562	784.4125366210938	1014.918334960938	204.5348815917969	874.2698364257812	792.6973876953125	301.8518371582031	815.90673828125	790.0687866210938	347.2447509765625	783.9735717773438	954.621826171875	321.0529174804688	838.120361328125	622.7600708007812	294.8712768554688	864.6043090820312	684.9060668945312	320.4821472167969	803.4668579101562	701.1869506835938	344.6679382324219	802.0133056640625	1553.346801757812	158.4589996337891	940.9728393554688	1570.84423828125	15.9504337310791	933.1837768554688	1575.997314453125	139.1262664794922	794.9261474609375	1542.924194335938	-2.541469573974609	860.868896484375	927.9658813476562	-87.66707611083984	912.1311645507812	931.2396240234375	269.2008056640625	1030.134521484375	953.4108276367188	191.6778259277344	977.2235107421875	929.0709838867188	-67.50602722167969	869.8966064453125	441.5649108886719	-58.53229904174805	876.9090576171875	581.9510498046875	-71.78307342529297	548.9296264648438	110.1387252807617	-21.34524536132812	703.311279296875	268.4761962890625	-51.42667388916016	721.6625366210938	33.29336166381836	71.5889892578125	655.642578125	61.70886611938477	85.09384155273438	653.2118530273438	40.26803207397461	-16.62079048156738	515.6766967773438	142.7703552246094	29.63341903686523	1091.279907226562	467.4124450683594	212.7683410644531	1040.828979492188	724.9482421875	252.2016296386719	1127.814208984375	44.34719848632812	167.2416839599609	1128.480224609375	346.0376586914062	192.0432281494141	1300.135009765625	31.12717056274414	89.04484558105469	1223.942260742188	37.79718399047852	66.56208801269531	1210.293823242188	34.99287796020508	165.3947448730469	1052.29248046875	32.81890106201172	118.3516006469727	
422	4.21	819.8199462890625	944.4814453125	170.1908264160156	800.4920043945312	936.54345703125	41.04804611206055	804.624267578125	1016.849548339844	102.4691314697266	1014.088012695312	1193.635009765625	78.45112609863281	774.1172485351562	1114.081420898438	89.32369995117188	783.7377319335938	1365.25732421875	70.11490631103516	945.1681518554688	1304.64990234375	78.96360015869141	758.9043579101562	1213.281616210938	133.1033020019531	769.5062255859375	1328.10986328125	-30.66571998596191	853.8867797851562	1353.814208984375	-82.30377197265625	831.9987182617188	1231.644409179688	-146.8954010009766	865.9965209960938	1043.854370117188	-171.1387481689453	816.2537231445312	1009.138366699219	-109.1189880371094	1060.478271484375	943.5673828125	-143.6381378173828	1028.980346679688	912.30126953125	-213.3389282226562	926.1680908203125	978.2882080078125	-187.6775665283203	1173.708374023438	806.537841796875	-171.1920471191406	1096.520629882812	856.4401245117188	-217.3077697753906	1137.280517578125	884.792724609375	-176.0671844482422	833.8062133789062	1346.423828125	228.8037261962891	813.5769653320312	1281.86474609375	280.1316528320312	785.0818481445312	1022.466552734375	302.8916625976562	795.31201171875	1015.977111816406	207.4903717041016	891.0603637695312	796.1558837890625	304.3662109375	833.2552490234375	792.4275512695312	350.3569946289062	797.5884399414062	956.2070922851562	323.7712707519531	858.6595458984375	625.4917602539062	298.3473205566406	883.8460693359375	688.3106689453125	323.4300231933594	822.843017578125	703.3214111328125	348.2405700683594	810.0701293945312	1554.749267578125	159.0617065429688	948.7692260742188	1572.29833984375	16.2838249206543	941.1495361328125	1577.591552734375	139.4869995117188	802.7608032226562	1544.073608398438	-1.949069023132324	870.1090698242188	928.7249145507812	-86.52797698974609	921.5607299804688	933.5081176757812	270.2417907714844	1039.595825195312	955.5411987304688	192.7362060546875	986.4425048828125	930.2393188476562	-66.25359344482422	883.5840454101562	442.2739562988281	-59.38462829589844	889.3175048828125	582.12451171875	-71.52918243408203	555.69921875	117.7738571166992	-22.16523551940918	713.3812255859375	272.8175354003906	-52.25247573852539	722.41748046875	32.97025680541992	71.47230529785156	659.3798828125	63.99217987060547	84.36208343505859	655.76220703125	41.63729476928711	-17.02139282226562	524.4970092773438	152.0052490234375	28.93875694274902	1097.023559570312	467.7884521484375	213.6794281005859	1049.623168945312	726.2321166992188	253.3456115722656	1128.288330078125	44.33930587768555	167.3096618652344	1132.837524414062	345.8871765136719	192.6421813964844	1300.46484375	30.55620574951172	88.86727905273438	1224.101684570312	37.69282150268555	66.56053161621094	1210.506103515625	34.80952072143555	165.3862915039062	1052.4111328125	32.94290542602539	118.7146453857422	
